v 0.000000 1.800000 0.899843
v 2.021201 1.717887 0.899843
v 2.100000 0.000000 0.899843
v 2.021201 -1.717887 0.899843
v 0.000000 -1.800000 0.899843
v -2.021201 -1.717887 0.899843
v -2.100000 0.000000 0.899843
v -2.021201 1.717887 0.899843
v 2.036278 2.220000 0.637398
v 2.520000 1.715933 0.637398
v 2.520000 -1.715933 0.637398
v 2.036278 -2.220000 0.637398
v -2.036278 -2.220000 0.637398
v -2.520000 -1.715933 0.637398
v -2.520000 1.715933 0.637398
v -2.036278 2.220000 0.637398
v 0.000000 3.000000 0.150000
v 0.433413 2.990543 0.116571
v 0.866002 2.962189 0.099777
v 1.296942 2.914994 0.099650
v 1.725413 2.849046 0.116190
v 1.941705 2.808433 0.130955
v 2.157046 2.763040 0.150000
v 2.318462 2.713477 0.117812
v 2.473796 2.641790 0.105998
v 2.621667 2.546995 0.115958
v 2.760323 2.427176 0.150000
v 2.875853 2.294248 0.119944
v 2.968588 2.152120 0.111057
v 3.039922 2.002505 0.121551
v 3.090499 1.846794 0.150339
v 3.135325 1.641205 0.132407
v 3.174501 1.434460 0.119285
v 3.229328 1.078241 0.107223
v 3.268565 0.719970 0.108326
v 3.292138 0.360328 0.122595
v 3.300000 0.000000 0.150000
v 3.292138 -0.360328 0.122595
v 3.268565 -0.719970 0.108326
v 3.229328 -1.078241 0.107223
v 3.174501 -1.434460 0.119285
v 3.135325 -1.641205 0.132407
v 3.090499 -1.846794 0.150339
v 3.039922 -2.002505 0.121551
v 2.968588 -2.152120 0.111057
v 2.875853 -2.294248 0.119944
v 2.760323 -2.427176 0.150000
v 2.621667 -2.546995 0.115958
v 2.473796 -2.641790 0.105998
v 2.318462 -2.713477 0.117812
v 2.157046 -2.763040 0.150000
v 1.941705 -2.808433 0.130955
v 1.725413 -2.849046 0.116190
v 1.296942 -2.914994 0.099650
v 0.866002 -2.962189 0.099777
v 0.433413 -2.990543 0.116571
v 0.000000 -3.000000 0.150000
v -0.433413 -2.990543 0.116571
v -0.866002 -2.962189 0.099777
v -1.296942 -2.914994 0.099650
v -1.725413 -2.849046 0.116190
v -1.941705 -2.808433 0.130955
v -2.157046 -2.763040 0.150000
v -2.318462 -2.713477 0.117812
v -2.473796 -2.641790 0.105998
v -2.621667 -2.546995 0.115958
v -2.760323 -2.427176 0.150000
v -2.875853 -2.294248 0.119944
v -2.968588 -2.152120 0.111057
v -3.039922 -2.002505 0.121551
v -3.090499 -1.846794 0.150339
v -3.135325 -1.641205 0.132407
v -3.174501 -1.434460 0.119285
v -3.229328 -1.078241 0.107223
v -3.268565 -0.719970 0.108326
v -3.292138 -0.360328 0.122595
v -3.300000 0.000000 0.150000
v -3.292138 0.360328 0.122595
v -3.268565 0.719970 0.108326
v -3.229328 1.078241 0.107223
v -3.174501 1.434460 0.119285
v -3.135325 1.641205 0.132407
v -3.090499 1.846794 0.150339
v -3.039922 2.002505 0.121551
v -2.968588 2.152120 0.111057
v -2.875853 2.294248 0.119944
v -2.760323 2.427176 0.150000
v -2.621667 2.546995 0.115958
v -2.473796 2.641790 0.105998
v -2.318462 2.713477 0.117812
v -2.157046 2.763040 0.150000
v -1.941705 2.808433 0.130955
v -1.725413 2.849046 0.116190
v -1.296942 2.914994 0.099650
v -0.866002 2.962189 0.099777
v -0.433413 2.990543 0.116571
v 0.000000 3.000000 -0.150000
v 0.433413 2.990543 -0.096675
v 0.866002 2.962189 -0.078889
v 1.296942 2.914994 -0.096675
v 1.725413 2.849046 -0.150000
v 1.941705 2.808433 -0.066415
v 2.157046 2.763040 0.008086
v 2.318462 2.713477 0.036624
v 2.473796 2.641790 0.021920
v 2.621667 2.546995 -0.038749
v 2.760323 2.427176 -0.150000
v 2.875853 2.294248 -0.070556
v 2.968588 2.152120 -0.026335
v 3.039922 2.002505 -0.014549
v 3.090499 1.846794 -0.033577
v 3.135325 1.641205 -0.087734
v 3.174501 1.434460 -0.150000
v 3.229328 1.078241 -0.118719
v 3.268565 0.719970 -0.108285
v 3.292138 0.360328 -0.118719
v 3.300000 0.000000 -0.150000
v 3.292138 -0.360328 -0.118719
v 3.268565 -0.719970 -0.108285
v 3.229328 -1.078241 -0.118719
v 3.174501 -1.434460 -0.150000
v 3.135325 -1.641205 -0.087734
v 3.090499 -1.846794 -0.033577
v 3.039922 -2.002505 -0.014549
v 2.968588 -2.152120 -0.026335
v 2.875853 -2.294248 -0.070556
v 2.760323 -2.427176 -0.150000
v 2.621667 -2.546995 -0.038749
v 2.473796 -2.641790 0.021920
v 2.318462 -2.713477 0.036624
v 2.157046 -2.763040 0.008086
v 1.941705 -2.808433 -0.066415
v 1.725413 -2.849046 -0.150000
v 1.296942 -2.914994 -0.096675
v 0.866002 -2.962189 -0.078889
v 0.433413 -2.990543 -0.096675
v 0.000000 -3.000000 -0.150000
v -0.433413 -2.990543 -0.096675
v -0.866002 -2.962189 -0.078889
v -1.296942 -2.914994 -0.096675
v -1.725413 -2.849046 -0.150000
v -1.941705 -2.808433 -0.066415
v -2.157046 -2.763040 0.008086
v -2.318462 -2.713477 0.036624
v -2.473796 -2.641790 0.021920
v -2.621667 -2.546995 -0.038749
v -2.760323 -2.427176 -0.150000
v -2.875853 -2.294248 -0.070556
v -2.968588 -2.152120 -0.026335
v -3.039922 -2.002505 -0.014549
v -3.090499 -1.846794 -0.033577
v -3.135325 -1.641205 -0.087734
v -3.174501 -1.434460 -0.150000
v -3.229328 -1.078241 -0.118719
v -3.268565 -0.719970 -0.108285
v -3.292138 -0.360328 -0.118719
v -3.300000 0.000000 -0.150000
v -3.292138 0.360328 -0.118719
v -3.268565 0.719970 -0.108285
v -3.229328 1.078241 -0.118719
v -3.174501 1.434460 -0.150000
v -3.135325 1.641205 -0.087734
v -3.090499 1.846794 -0.033577
v -3.039922 2.002505 -0.014549
v -2.968588 2.152120 -0.026335
v -2.875853 2.294248 -0.070556
v -2.760323 2.427176 -0.150000
v -2.621667 2.546995 -0.038749
v -2.473796 2.641790 0.021920
v -2.318462 2.713477 0.036624
v -2.157046 2.763040 0.008086
v -1.941705 2.808433 -0.066415
v -1.725413 2.849046 -0.150000
v -1.296942 2.914994 -0.096675
v -0.866002 2.962189 -0.078889
v -0.433413 2.990543 -0.096675
v 0.000000 2.583683 -0.930000
v 1.654795 2.512563 -0.792000
v 2.688820 1.435048 -0.792000
v 2.709983 0.000000 -0.930000
v 2.688820 -1.435048 -0.792000
v 1.654795 -2.512563 -0.792000
v 0.000000 -2.583683 -0.930000
v -1.654795 -2.512563 -0.792000
v -2.688820 -1.435048 -0.792000
v -2.709983 0.000000 -0.930000
v -2.688820 1.435048 -0.792000
v -1.654795 2.512563 -0.792000
v 0.000000 1.597049 -2.148000
v 1.100075 0.967305 -2.070000
v 1.680662 0.000000 -2.148000
v 1.100075 -0.967305 -2.070000
v 0.000000 -1.597049 -2.148000
v -1.100075 -0.967305 -2.070000
v -1.680662 0.000000 -2.148000
v -1.100075 0.967305 -2.070000
v 0.000000 0.000000 -3.030000

vn -0.000000 0.000000 1.000000
vn 0.018798 0.462697 0.886317
vn 0.465594 0.021357 0.884741
vn 0.465594 -0.021357 0.884741
vn 0.018798 -0.462697 0.886317
vn -0.018798 -0.462697 0.886317
vn -0.465594 -0.021357 0.884741
vn -0.465594 0.021357 0.884741
vn -0.018798 0.462697 0.886317
vn 0.000000 0.529919 0.848048
vn 0.426168 0.408967 0.806924
vn 0.529919 -0.000000 0.848048
vn 0.426168 -0.408967 0.806924
vn -0.000000 -0.529919 0.848048
vn -0.426168 -0.408967 0.806924
vn -0.529919 0.000000 0.848048
vn -0.426168 0.408967 0.806924
vn 0.072203 0.657267 0.750191
vn 0.328187 0.589489 0.738103
vn 0.569944 0.324679 0.754816
vn 0.637969 0.072231 0.766667
vn 0.637969 -0.072231 0.766667
vn 0.569944 -0.324679 0.754816
vn 0.328187 -0.589489 0.738103
vn 0.072203 -0.657267 0.750191
vn -0.072203 -0.657267 0.750191
vn -0.328187 -0.589489 0.738103
vn -0.569944 -0.324679 0.754816
vn -0.637969 -0.072231 0.766667
vn -0.637969 0.072231 0.766667
vn -0.569944 0.324679 0.754816
vn -0.328187 0.589489 0.738103
vn -0.072203 0.657267 0.750191
vn 0.021815 0.999762 -0.000000
vn 0.065403 0.997859 -0.000000
vn 0.108867 0.994056 -0.000000
vn 0.152123 0.988362 0.000000
vn 0.184544 0.982824 0.000000
vn 0.206265 0.978496 0.000000
vn 0.293523 0.955952 -0.000000
vn 0.419029 0.907973 0.000000
vn 0.539694 0.841861 0.000000
vn 0.653839 0.756634 -0.000000
vn 0.754773 0.655986 -0.000000
vn 0.837494 0.546446 -0.000000
vn 0.902654 0.430367 -0.000000
vn 0.951086 0.308927 0.000000
vn 0.977045 0.213032 0.000000
vn 0.982516 0.186177 0.000000
vn 0.988362 0.152123 0.000000
vn 0.994056 0.108867 -0.000000
vn 0.997859 0.065403 0.000000
vn 0.999762 0.021815 0.000000
vn 0.999762 -0.021815 0.000000
vn 0.997859 -0.065403 0.000000
vn 0.994056 -0.108867 0.000000
vn 0.988362 -0.152123 0.000000
vn 0.982516 -0.186177 -0.000000
vn 0.977045 -0.213032 0.000000
vn 0.951086 -0.308927 -0.000000
vn 0.902654 -0.430367 0.000000
vn 0.837494 -0.546446 -0.000000
vn 0.754773 -0.655986 0.000000
vn 0.653839 -0.756634 0.000000
vn 0.539694 -0.841861 0.000000
vn 0.419029 -0.907973 -0.000000
vn 0.293523 -0.955952 0.000000
vn 0.206265 -0.978496 0.000000
vn 0.184544 -0.982824 0.000000
vn 0.152123 -0.988362 -0.000000
vn 0.108867 -0.994056 0.000000
vn 0.065403 -0.997859 0.000000
vn 0.021815 -0.999762 0.000000
vn -0.021815 -0.999762 -0.000000
vn -0.065403 -0.997859 -0.000000
vn -0.108867 -0.994056 -0.000000
vn -0.152123 -0.988362 0.000000
vn -0.184544 -0.982824 0.000000
vn -0.206265 -0.978496 0.000000
vn -0.293523 -0.955952 -0.000000
vn -0.419029 -0.907973 0.000000
vn -0.539694 -0.841861 0.000000
vn -0.653839 -0.756634 -0.000000
vn -0.754773 -0.655986 -0.000000
vn -0.837494 -0.546446 -0.000000
vn -0.902654 -0.430367 -0.000000
vn -0.951086 -0.308927 0.000000
vn -0.977045 -0.213032 0.000000
vn -0.982516 -0.186177 0.000000
vn -0.988362 -0.152123 0.000000
vn -0.994056 -0.108867 -0.000000
vn -0.997859 -0.065403 0.000000
vn -0.999762 -0.021815 0.000000
vn -0.999762 0.021815 0.000000
vn -0.997859 0.065403 0.000000
vn -0.994056 0.108867 0.000000
vn -0.988362 0.152123 0.000000
vn -0.982516 0.186177 -0.000000
vn -0.977045 0.213032 0.000000
vn -0.951086 0.308927 -0.000000
vn -0.902654 0.430367 0.000000
vn -0.837494 0.546446 -0.000000
vn -0.754773 0.655986 0.000000
vn -0.653839 0.756634 0.000000
vn -0.539694 0.841861 0.000000
vn -0.419029 0.907973 -0.000000
vn -0.293523 0.955952 0.000000
vn -0.206265 0.978496 0.000000
vn -0.184544 0.982824 0.000000
vn -0.152123 0.988362 -0.000000
vn -0.108867 0.994056 0.000000
vn -0.065403 0.997859 0.000000
vn -0.021815 0.999762 0.000000
vn 0.076954 0.879588 -0.469472
vn 0.333964 0.819265 -0.466126
vn 0.756837 0.315765 -0.572267
vn 0.795596 0.069606 -0.601815
vn 0.795596 -0.069606 -0.601815
vn 0.756837 -0.315765 -0.572267
vn 0.333964 -0.819265 -0.466126
vn 0.076954 -0.879588 -0.469472
vn -0.076954 -0.879588 -0.469472
vn -0.333964 -0.819265 -0.466126
vn -0.756837 -0.315765 -0.572267
vn -0.795596 -0.069606 -0.601815
vn -0.795596 0.069606 -0.601815
vn -0.756837 0.315765 -0.572267
vn -0.333964 0.819265 -0.466126
vn -0.076954 0.879588 -0.469472
vn 0.473358 0.454253 -0.754710
vn 0.473358 -0.454253 -0.754710
vn -0.473358 -0.454253 -0.754710
vn -0.473358 0.454253 -0.754710
vn -0.351957 0.518279 -0.779431
vn -0.085573 0.774197 -0.627133
vn 0.085573 0.774197 -0.627133
vn 0.351957 0.518279 -0.779431
vn 0.513468 0.370599 -0.773955
vn 0.761741 0.073138 -0.643740
vn 0.761741 -0.073138 -0.643740
vn 0.513468 -0.370599 -0.773955
vn 0.351957 -0.518279 -0.779431
vn 0.085573 -0.774197 -0.627133
vn -0.085573 -0.774197 -0.627133
vn -0.351957 -0.518279 -0.779431
vn -0.513468 -0.370599 -0.773955
vn -0.761741 -0.073138 -0.643740
vn -0.761741 0.073138 -0.643740
vn -0.513468 0.370599 -0.773955
vn 0.320899 0.457875 -0.829081
vn 0.438559 0.330614 -0.835680
vn 0.438559 -0.330614 -0.835680
vn 0.320899 -0.457875 -0.829081
vn -0.320899 -0.457875 -0.829081
vn -0.438559 -0.330614 -0.835680
vn -0.438559 0.330614 -0.835680
vn -0.320899 0.457875 -0.829081



f 1//1 8//1 7//1
f 1//1 7//1 6//1
f 1//1 6//1 5//1
f 1//1 5//1 4//1
f 1//1 4//1 3//1
f 1//1 3//1 2//1
f 1//2 2//2 9//2
f 2//3 3//3 10//3
f 3//4 4//4 11//4
f 4//5 5//5 12//5
f 5//6 6//6 13//6
f 6//7 7//7 14//7
f 7//8 8//8 15//8
f 8//9 1//9 16//9
f 1//10 9//10 17//10
f 1//10 17//10 16//10
f 2//11 10//11 27//11
f 2//11 27//11 9//11
f 3//12 11//12 37//12
f 3//12 37//12 10//12
f 4//13 12//13 47//13
f 4//13 47//13 11//13
f 5//14 13//14 57//14
f 5//14 57//14 12//14
f 6//15 14//15 67//15
f 6//15 67//15 13//15
f 7//16 15//16 77//16
f 7//16 77//16 14//16
f 8//17 16//17 87//17
f 8//17 87//17 15//17
f 9//18 23//18 22//18
f 9//18 22//18 21//18
f 9//18 21//18 20//18
f 9//18 20//18 19//18
f 9//18 19//18 18//18
f 9//18 18//18 17//18
f 9//19 27//19 26//19
f 9//19 26//19 25//19
f 9//19 25//19 24//19
f 9//19 24//19 23//19
f 10//20 31//20 30//20
f 10//20 30//20 29//20
f 10//20 29//20 28//20
f 10//20 28//20 27//20
f 10//21 37//21 36//21
f 10//21 36//21 35//21
f 10//21 35//21 34//21
f 10//21 34//21 33//21
f 10//21 33//21 32//21
f 10//21 32//21 31//21
f 11//22 43//22 42//22
f 11//22 42//22 41//22
f 11//22 41//22 40//22
f 11//22 40//22 39//22
f 11//22 39//22 38//22
f 11//22 38//22 37//22
f 11//23 47//23 46//23
f 11//23 46//23 45//23
f 11//23 45//23 44//23
f 11//23 44//23 43//23
f 12//24 51//24 50//24
f 12//24 50//24 49//24
f 12//24 49//24 48//24
f 12//24 48//24 47//24
f 12//25 57//25 56//25
f 12//25 56//25 55//25
f 12//25 55//25 54//25
f 12//25 54//25 53//25
f 12//25 53//25 52//25
f 12//25 52//25 51//25
f 13//26 63//26 62//26
f 13//26 62//26 61//26
f 13//26 61//26 60//26
f 13//26 60//26 59//26
f 13//26 59//26 58//26
f 13//26 58//26 57//26
f 13//27 67//27 66//27
f 13//27 66//27 65//27
f 13//27 65//27 64//27
f 13//27 64//27 63//27
f 14//28 71//28 70//28
f 14//28 70//28 69//28
f 14//28 69//28 68//28
f 14//28 68//28 67//28
f 14//29 77//29 76//29
f 14//29 76//29 75//29
f 14//29 75//29 74//29
f 14//29 74//29 73//29
f 14//29 73//29 72//29
f 14//29 72//29 71//29
f 15//30 83//30 82//30
f 15//30 82//30 81//30
f 15//30 81//30 80//30
f 15//30 80//30 79//30
f 15//30 79//30 78//30
f 15//30 78//30 77//30
f 15//31 87//31 86//31
f 15//31 86//31 85//31
f 15//31 85//31 84//31
f 15//31 84//31 83//31
f 16//32 91//32 90//32
f 16//32 90//32 89//32
f 16//32 89//32 88//32
f 16//32 88//32 87//32
f 16//33 17//33 96//33
f 16//33 96//33 95//33
f 16//33 95//33 94//33
f 16//33 94//33 93//33
f 16//33 93//33 92//33
f 16//33 92//33 91//33
f 17//34 18//34 98//34
f 17//34 98//34 97//34
f 18//35 19//35 99//35
f 18//35 99//35 98//35
f 19//36 20//36 100//36
f 19//36 100//36 99//36
f 20//37 21//37 101//37
f 20//37 101//37 100//37
f 21//38 22//38 102//38
f 21//38 102//38 101//38
f 22//39 23//39 103//39
f 22//39 103//39 102//39
f 23//40 24//40 104//40
f 23//40 104//40 103//40
f 24//41 25//41 105//41
f 24//41 105//41 104//41
f 25//42 26//42 106//42
f 25//42 106//42 105//42
f 26//43 27//43 107//43
f 26//43 107//43 106//43
f 27//44 28//44 108//44
f 27//44 108//44 107//44
f 28//45 29//45 109//45
f 28//45 109//45 108//45
f 29//46 30//46 110//46
f 29//46 110//46 109//46
f 30//47 31//47 111//47
f 30//47 111//47 110//47
f 31//48 32//48 112//48
f 31//48 112//48 111//48
f 32//49 33//49 113//49
f 32//49 113//49 112//49
f 33//50 34//50 114//50
f 33//50 114//50 113//50
f 34//51 35//51 115//51
f 34//51 115//51 114//51
f 35//52 36//52 116//52
f 35//52 116//52 115//52
f 36//53 37//53 117//53
f 36//53 117//53 116//53
f 37//54 38//54 118//54
f 37//54 118//54 117//54
f 38//55 39//55 119//55
f 38//55 119//55 118//55
f 39//56 40//56 120//56
f 39//56 120//56 119//56
f 40//57 41//57 121//57
f 40//57 121//57 120//57
f 41//58 42//58 122//58
f 41//58 122//58 121//58
f 42//59 43//59 123//59
f 42//59 123//59 122//59
f 43//60 44//60 124//60
f 43//60 124//60 123//60
f 44//61 45//61 125//61
f 44//61 125//61 124//61
f 45//62 46//62 126//62
f 45//62 126//62 125//62
f 46//63 47//63 127//63
f 46//63 127//63 126//63
f 47//64 48//64 128//64
f 47//64 128//64 127//64
f 48//65 49//65 129//65
f 48//65 129//65 128//65
f 49//66 50//66 130//66
f 49//66 130//66 129//66
f 50//67 51//67 131//67
f 50//67 131//67 130//67
f 51//68 52//68 132//68
f 51//68 132//68 131//68
f 52//69 53//69 133//69
f 52//69 133//69 132//69
f 53//70 54//70 134//70
f 53//70 134//70 133//70
f 54//71 55//71 135//71
f 54//71 135//71 134//71
f 55//72 56//72 136//72
f 55//72 136//72 135//72
f 56//73 57//73 137//73
f 56//73 137//73 136//73
f 57//74 58//74 138//74
f 57//74 138//74 137//74
f 58//75 59//75 139//75
f 58//75 139//75 138//75
f 59//76 60//76 140//76
f 59//76 140//76 139//76
f 60//77 61//77 141//77
f 60//77 141//77 140//77
f 61//78 62//78 142//78
f 61//78 142//78 141//78
f 62//79 63//79 143//79
f 62//79 143//79 142//79
f 63//80 64//80 144//80
f 63//80 144//80 143//80
f 64//81 65//81 145//81
f 64//81 145//81 144//81
f 65//82 66//82 146//82
f 65//82 146//82 145//82
f 66//83 67//83 147//83
f 66//83 147//83 146//83
f 67//84 68//84 148//84
f 67//84 148//84 147//84
f 68//85 69//85 149//85
f 68//85 149//85 148//85
f 69//86 70//86 150//86
f 69//86 150//86 149//86
f 70//87 71//87 151//87
f 70//87 151//87 150//87
f 71//88 72//88 152//88
f 71//88 152//88 151//88
f 72//89 73//89 153//89
f 72//89 153//89 152//89
f 73//90 74//90 154//90
f 73//90 154//90 153//90
f 74//91 75//91 155//91
f 74//91 155//91 154//91
f 75//92 76//92 156//92
f 75//92 156//92 155//92
f 76//93 77//93 157//93
f 76//93 157//93 156//93
f 77//94 78//94 158//94
f 77//94 158//94 157//94
f 78//95 79//95 159//95
f 78//95 159//95 158//95
f 79//96 80//96 160//96
f 79//96 160//96 159//96
f 80//97 81//97 161//97
f 80//97 161//97 160//97
f 81//98 82//98 162//98
f 81//98 162//98 161//98
f 82//99 83//99 163//99
f 82//99 163//99 162//99
f 83//100 84//100 164//100
f 83//100 164//100 163//100
f 84//101 85//101 165//101
f 84//101 165//101 164//101
f 85//102 86//102 166//102
f 85//102 166//102 165//102
f 86//103 87//103 167//103
f 86//103 167//103 166//103
f 87//104 88//104 168//104
f 87//104 168//104 167//104
f 88//105 89//105 169//105
f 88//105 169//105 168//105
f 89//106 90//106 170//106
f 89//106 170//106 169//106
f 90//107 91//107 171//107
f 90//107 171//107 170//107
f 91//108 92//108 172//108
f 91//108 172//108 171//108
f 92//109 93//109 173//109
f 92//109 173//109 172//109
f 93//110 94//110 174//110
f 93//110 174//110 173//110
f 94//111 95//111 175//111
f 94//111 175//111 174//111
f 95//112 96//112 176//112
f 95//112 176//112 175//112
f 96//113 17//113 97//113
f 96//113 97//113 176//113
f 177//114 97//114 98//114
f 177//114 98//114 99//114
f 177//114 99//114 100//114
f 177//114 100//114 101//114
f 177//114 101//114 178//114
f 178//115 101//115 102//115
f 178//115 102//115 103//115
f 178//115 103//115 104//115
f 178//115 104//115 105//115
f 178//115 105//115 106//115
f 178//115 106//115 107//115
f 179//116 107//116 108//116
f 179//116 108//116 109//116
f 179//116 109//116 110//116
f 179//116 110//116 111//116
f 179//116 111//116 112//116
f 179//116 112//116 113//116
f 179//117 113//117 114//117
f 179//117 114//117 115//117
f 179//117 115//117 116//117
f 179//117 116//117 117//117
f 179//117 117//117 180//117
f 180//118 117//118 118//118
f 180//118 118//118 119//118
f 180//118 119//118 120//118
f 180//118 120//118 121//118
f 180//118 121//118 181//118
f 181//119 121//119 122//119
f 181//119 122//119 123//119
f 181//119 123//119 124//119
f 181//119 124//119 125//119
f 181//119 125//119 126//119
f 181//119 126//119 127//119
f 182//120 127//120 128//120
f 182//120 128//120 129//120
f 182//120 129//120 130//120
f 182//120 130//120 131//120
f 182//120 131//120 132//120
f 182//120 132//120 133//120
f 182//121 133//121 134//121
f 182//121 134//121 135//121
f 182//121 135//121 136//121
f 182//121 136//121 137//121
f 182//121 137//121 183//121
f 183//122 137//122 138//122
f 183//122 138//122 139//122
f 183//122 139//122 140//122
f 183//122 140//122 141//122
f 183//122 141//122 184//122
f 184//123 141//123 142//123
f 184//123 142//123 143//123
f 184//123 143//123 144//123
f 184//123 144//123 145//123
f 184//123 145//123 146//123
f 184//123 146//123 147//123
f 185//124 147//124 148//124
f 185//124 148//124 149//124
f 185//124 149//124 150//124
f 185//124 150//124 151//124
f 185//124 151//124 152//124
f 185//124 152//124 153//124
f 185//125 153//125 154//125
f 185//125 154//125 155//125
f 185//125 155//125 156//125
f 185//125 156//125 157//125
f 185//125 157//125 186//125
f 186//126 157//126 158//126
f 186//126 158//126 159//126
f 186//126 159//126 160//126
f 186//126 160//126 161//126
f 186//126 161//126 187//126
f 187//127 161//127 162//127
f 187//127 162//127 163//127
f 187//127 163//127 164//127
f 187//127 164//127 165//127
f 187//127 165//127 166//127
f 187//127 166//127 167//127
f 188//128 167//128 168//128
f 188//128 168//128 169//128
f 188//128 169//128 170//128
f 188//128 170//128 171//128
f 188//128 171//128 172//128
f 188//128 172//128 173//128
f 188//129 173//129 174//129
f 188//129 174//129 175//129
f 188//129 175//129 176//129
f 188//129 176//129 97//129
f 188//129 97//129 177//129
f 190//130 178//130 107//130
f 190//130 107//130 179//130
f 192//131 181//131 127//131
f 192//131 127//131 182//131
f 194//132 184//132 147//132
f 194//132 147//132 185//132
f 196//133 187//133 167//133
f 196//133 167//133 188//133
f 189//134 196//134 188//134
f 189//135 188//135 177//135
f 189//136 177//136 178//136
f 189//137 178//137 190//137
f 191//138 190//138 179//138
f 191//139 179//139 180//139
f 191//140 180//140 181//140
f 191//141 181//141 192//141
f 193//142 192//142 182//142
f 193//143 182//143 183//143
f 193//144 183//144 184//144
f 193//145 184//145 194//145
f 195//146 194//146 185//146
f 195//147 185//147 186//147
f 195//148 186//148 187//148
f 195//149 187//149 196//149
f 197//150 189//150 190//150
f 197//151 190//151 191//151
f 197//152 191//152 192//152
f 197//153 192//153 193//153
f 197//154 193//154 194//154
f 197//155 194//155 195//155
f 197//156 195//156 196//156
f 197//157 196//157 189//157
